<svg xmlns="http://www.w3.org/2000/svg" viewBox="0 0 352.84 285.51"><title>logo</title><g id="Layer_2" data-name="Layer 2"><g id="Layer_1-2" data-name="Layer 1"><path d="M36.48,284.55V222.06c0-8.25-.31-16.52.1-24.75.36-7.45-2.77-10-10-9.56-8.18.46-16.4.11-26.6.11,2.19-4.94,3.47-8.46,5.23-11.73C28.21,133.47,51.57,91,74,48.09c4.58-8.76,11.67-8.11,18.25-8,10.88.2,14-4.22,14.12-14.57C106.53,5.33,107,5.31,127,2.1c4.46-.72,9-1.24,15.25-2.1V103.17l2.81.82c1.9-2.39,4-4.65,5.65-7.2,4.13-6.36,7.51-13.29,12.22-19.17,8.71-10.88,12.77-22.78,10.76-36.63-1-7.14,1.75-9.57,9.18-10.1,22.34-1.62,44.6-4.47,66.94-6.17,3.19-.25,8.32,2.33,9.75,5.07q46.26,88.49,91.77,177.38c.7,1.36.74,3.05,1.52,6.46-15.9,0-30.91.56-45.86-.2-9.19-.46-12.22,2.35-11.86,11.61.66,17.14,0,34.33.28,51.49.08,5.93-1.07,9.13-8.09,9-23.39-.57-19.31,2.33-19.54-19.33s0-43.57,0-65.36V188.35h43.16c-20.46-41.44-39.74-80.48-59-119.51l-3.16,0c-18.76,38.92-37.52,77.84-57.87,120,11.15,0,19.79.6,28.31-.17,9-.81,11.13,2.72,11,11.22-.51,25.41-.35,50.84-.07,76.25.07,6.5-1.32,9.41-8.68,9.37-59.42-.26-118.83-.14-178.25-.17A63.8,63.8,0,0,1,36.48,284.55Z"/></g></g></svg>